<svg focusable="false" class="icon icon-chat" xmlns="http://www.w3.org/2000/svg" viewBox="0 0 64 64">
	<title>Web Design Icon</title>
    <desc>Icon set Web Design</desc>
	<path d="M111.633 3.153l.106.082.105.083 2.826 2.289a7.5 7.5 0 011.27 10.34l-.161.208-.172.205-7.19 8.257C115.105 26.534 120 32.696 120 40v48c0 8.837-7.163 16-16 16H70v11h11.5a2.5 2.5 0 110 5h-43a2.5 2.5 0 110-5H50v-11H16c-8.837 0-16-7.163-16-16V40c0-8.837 7.163-16 16-16h70.564l14.567-19.362a7.5 7.5 0 0110.502-1.485zM115 84H5v4c0 5.979 4.77 10.843 10.712 10.996L16 99h88c5.979 0 10.843-4.77 10.996-10.712L115 88v-4zm-54.5 3a4.5 4.5 0 110 9 4.5 4.5 0 010-9zm22.302-58H16c-5.979 0-10.843 4.77-10.996 10.712L5 40v39h110V40c0-5.878-4.61-10.68-10.412-10.985L85.38 51.075a7.5 7.5 0 01-10.165 1.069l-.211-.165-.273-.221a7.5 7.5 0 01-1.427-10.125l.154-.213L82.802 29zM77.3 57.82c.898 3.6-1.37 7.296-5.108 8.472l.01.013-12.614 3.145a1 1 0 01-1.163-1.359l4.423-10.487a.997.997 0 01.218-.322c.868-2.105 2.775-3.82 5.264-4.44 4.019-1.002 8.035 1.226 8.97 4.977zM105.24 7.504l-.113.139-27.672 36.782a2.5 2.5 0 00.293 3.332l.132.114.272.221a2.5 2.5 0 003.34-.174l.12-.127 30.254-34.749.127-.166a2.5 2.5 0 00-.333-3.267l-.136-.118-2.896-2.343a2.5 2.5 0 00-3.388.356z" />
</svg>
