<svg focusable="false" class="icon icon-hosting" xmlns="http://www.w3.org/2000/svg" viewBox="0 0 64 64">
	<title>Hosting Icon</title>
    <desc>Icon set Hosting</desc>
	<path d="M59 7c16.236 0 29.46 12.898 29.984 29.007l.17-.004L89.5 36c11.322 0 20.5 9.178 20.5 20.5 0 11.154-8.909 20.228-20 20.494V77H62.5v19.569a11.021 11.021 0 017.215 7.932h15.57C86.417 99.63 90.785 96 96 96c6.075 0 11 4.925 11 11s-4.925 11-11 11c-4.851 0-8.969-3.14-10.431-7.5H69.5l-.068-.001C67.97 114.859 63.852 118 59 118s-8.97-3.141-10.432-7.501l-.068.001H32.431C30.97 114.86 26.851 118 22 118c-6.075 0-11-4.925-11-11s4.925-11 11-11c5.215 0 9.583 3.63 10.715 8.5h15.57a11.016 11.016 0 018.216-8.215L56.5 77h-28C17.178 77 8 67.822 8 56.5S17.178 36 28.5 36c.173 0 .345.002.517.006C29.54 19.898 42.764 7 59 7zm0 95a5 5 0 100 10 5 5 0 000-10zm-37 0a5 5 0 104.725 6.64 2.974 2.974 0 01-.225-1.14c0-.545.145-1.055.399-1.496A4.998 4.998 0 0022 102zm74 0a5.002 5.002 0 00-4.9 4.004c.255.44.4.951.4 1.496 0 .404-.08.789-.224 1.14A5 5 0 1096 102zM59 13c-12.829 0-23.354 10.084-23.97 22.815l-.016.386-.194 5.95-5.952-.146L28.5 42C20.492 42 14 48.492 14 56.5c0 7.903 6.322 14.329 14.185 14.497L29 71h60.649l.208-.004c7.749-.186 13.973-6.448 14.14-14.178L104 56.5c0-7.903-6.322-14.329-14.137-14.497L89.55 42l-.26.001-6.11.14-.193-5.94c-.416-12.783-10.818-22.995-23.599-23.198L59 13z"/>
</svg>
