<svg focusable="false" class="icon icon-web-design" xmlns="http://www.w3.org/2000/svg" viewBox="0 0 64 64">
	<title>Chat Icon</title>
    <desc>Icon set Chat</desc>
	<path d="M104 4c8.837 0 16 7.163 16 16v24.25c0 8.837-7.163 16-16 16h-2.055L101.193 73 89.156 60.25H86v23.304a16.242 16.242 0 01-.114 1.92 15.939 15.939 0 01-1.092 4.185l-.072.171c-.128.3-.265.596-.41.887l-.052.102-.052.1a15.957 15.957 0 01-1.028 1.71l-.048.068-.047.068-.122.17-.04.055-.102.138-.094.125-.06.078-.078.1a16.078 16.078 0 01-3.106 3.012l-.137.1a16.026 16.026 0 01-1.234.805l-.113.067a15.96 15.96 0 01-.905.485l-.142.07a15.919 15.919 0 01-1.367.583l-.077.028-.077.028a15.88 15.88 0 01-.175.062l-.11.038a15.866 15.866 0 01-2.662.654l-.147.022-.154.022-.121.016a16.016 16.016 0 01-1.747.128l-.315.003H32.349L19.725 116l-.79-16.446H16a16.311 16.311 0 01-1.25-.048l-.015-.001a16.1 16.1 0 01-3.316-.616 15.833 15.833 0 01-.564-.18l-.122-.042a15.87 15.87 0 01-3.466-1.704l-.069-.045-.068-.045a15.984 15.984 0 01-1.853-1.443l-.107-.098a16.09 16.09 0 01-.2-.187l-.174-.168-.172-.171a16.08 16.08 0 01-.969-1.072l-.073-.09-.072-.09a16.072 16.072 0 01-.275-.351l-.055-.074-.082-.11-.08-.11-.103-.144a16.046 16.046 0 01-1.628-2.912l-.034-.081c-.067-.159-.132-.32-.194-.48l-.023-.062-.064-.171a15.87 15.87 0 01-.94-4.47 16.217 16.217 0 01-.029-.72L0 83.554V43c0-1.01.094-2 .273-2.958l.051-.263a15.902 15.902 0 01.33-1.322l.016-.052c.014-.05.03-.1.045-.148l.048-.153a15.862 15.862 0 01.404-1.114l.045-.11a15.906 15.906 0 011.72-3.115l.08-.112a16.048 16.048 0 011.413-1.7l.132-.136.078-.079.025-.026.133-.131.065-.064a16.125 16.125 0 01.427-.4l.107-.095a16.091 16.091 0 01.92-.756l.104-.079.1-.075.138-.1.085-.06a16.047 16.047 0 01.888-.589l.129-.078.132-.079L8 29.14l.13-.075a15.984 15.984 0 011.207-.616l.124-.057a15.923 15.923 0 01.801-.333l.061-.023a15.885 15.885 0 01.245-.09l.175-.063.11-.038a15.861 15.861 0 012.965-.698l.086-.011.245-.03a16.074 16.074 0 011.535-.103L16 27h22v-7c0-8.837 7.163-16 16-16h50zM70 81a2 2 0 01.15 3.995L70 85h-9.5a2 2 0 01-.15-3.995L60.5 81H70zm-22 0a2 2 0 01.15 3.995L48 85H16.5a2 2 0 01-.15-3.995L16.5 81H48zm22-13a2 2 0 01.15 3.995L70 72H16a2 2 0 01-.15-3.995L16 68h54zm0-13a2 2 0 01.15 3.995L70 59H16a2 2 0 01-.15-3.995L16 55h54zm34-45H54c-5.43 0-9.848 4.327-9.996 9.72L44 20v7h26c8.731 0 15.83 6.994 15.997 15.685L86 43v11.25h5.743l4.278 4.532.268-4.532H104c5.43 0 9.848-4.327 9.996-9.72l.004-.28V20c0-5.43-4.327-9.848-9.72-9.996L104 10zm1.5 33a2 2 0 01.15 3.995l-.15.005H92a2 2 0 01-.15-3.995L92 43h13.5zM70 42a2 2 0 01.15 3.995L70 46H16a2 2 0 01-.15-3.995L16 42h54zm35-12a2 2 0 01.15 3.995L105 34H92a2 2 0 01-.15-3.995L92 30h13zm-89.94 3.044l-.018.001-.09.009-.097.01.039-.004-.063.007-.031.004-.136.017-.053.007-.243.038c-.09.014-.179.03-.268.047l-.268.056-.265.062a9.923 9.923 0 00-.562.158l-.15.048-.067.022.022-.006-.129.044-.045.015-.036.013-.022.008-.025.01c-.274.1-.543.213-.806.337l-.39.194a9.983 9.983 0 00-.5.281l-.031.018-.026.016-.222.14c-.092.059-.182.12-.272.182l-.069.049c-.213.15-.42.309-.62.475l-.033.027-.025.02.026-.021-.174.15c-.068.059-.135.12-.2.18l-.165.156a10.064 10.064 0 00-1.205 1.402 9.974 9.974 0 00-1.833 5.373L6 43v40.554l.003.244.002.071.008.197-.001.006.005.07.004.068.001.019.001.016.005.067.004.042.012.14.008.092v.002l.002.013.015.136-.011-.104.034.283.042.28.006.04-.003-.021.08.417c.06.29.134.574.22.853l.014.049.026.082.031.092-.032-.093.034.104.037.107-.027-.08c.17.503.378.988.621 1.452l.128.235.134.232.006.011.024.041-.013-.023.038.063.01.017.062.099.006.009-.098-.158c.147.243.304.48.471.71l.029.038.01.013.012.017.022.03.004.005a10.044 10.044 0 002.824 2.567l.003.001.332.193a9.964 9.964 0 001.897.812l.25.073a9.896 9.896 0 001.28.27l.32.04c.274.03.552.05.832.058l.206.002.07.001h8.655l.278 5.806 4.457-5.806h40.552l.127-.001.178-.003.11-.002.165-.007.068-.004.068-.004.144-.01.131-.012.129-.013-.117.012a10.028 10.028 0 00.496-.058l-.08.01.109-.016.117-.018-.082.013.086-.012.112-.02.05-.008.027-.005.079-.014.118-.023-.085.017.272-.056.27-.064.062-.016.159-.043.038-.01-.01.003.057-.015-.033.008.234-.068a9.921 9.921 0 001.514-.605l.201-.103.204-.11.125-.072.097-.057-.077.046.092-.054.012-.008.048-.029.054-.033.008-.005.083-.05.026-.017-.025.015.042-.026.29-.19c.402-.275.783-.579 1.14-.908l.035-.031.001-.003-.003.002.07-.063.1-.097.162-.161c.16-.163.313-.33.461-.504l.108-.128a10.278 10.278 0 00.3-.38l.14-.191a10 10 0 00.88-1.495l.052-.11.102-.228a9.93 9.93 0 00.813-3.69l.004-.276V43l-.004-.28c-.146-5.3-4.416-9.57-9.716-9.716L70 33H16l-.246.003-.15.005-.119.005-.071.004-.072.004-.127.01-.05.003.035-.002-.111.009.075-.007-.104.01zM105.5 17.5a2 2 0 01.15 3.995l-.15.005h-53a2 2 0 01-.15-3.995l.15-.005h53z" />
</svg>
