<svg focusable="false" class="icon icon-code" xmlns="http://www.w3.org/2000/svg" viewBox="0 0 64 64">
	<title>Code Icon</title>
    <desc>Icon set Code</desc>
	<path d="M66.748 15.722a3.5 3.5 0 012.868 3.864l-.029.19-15.28 86.663a3.5 3.5 0 01-6.923-1.025l.029-.19 15.28-86.663a3.5 3.5 0 014.055-2.84zm18.54 13.029l.155.135 31.112 28.643.026.023.079.077-.105-.1c.064.059.126.12.184.182l.02.022.028.03c.03.033.058.066.086.099l-.113-.129a3.55 3.55 0 01.24.29l.039.054a2.772 2.772 0 01.173.269 4.346 4.346 0 01.134.253 3.486 3.486 0 01.09.209l.02.047.049.138.011.037c.016.046.03.094.043.142l.016.06a2.91 2.91 0 01.077.395 2.891 2.891 0 01.031.372 3.353 3.353 0 01-.03.58 4.343 4.343 0 01-.078.397l-.016.06a3.07 3.07 0 01-.04.137l-.013.035a3.406 3.406 0 01-.473.93l-.025.036-.09.117-.042.05a2.96 2.96 0 01-.09.104l-.026.03-.02.022a3.53 3.53 0 01-.037.038l-.051.049-.036.038a3.54 3.54 0 01-.026.025l-.035.032-31.82 29.294a3.5 3.5 0 01-4.888-5.006l.147-.144 29.023-26.72L80.7 34.036a3.5 3.5 0 014.586-5.284zm-51.251-.472a3.5 3.5 0 01.141 4.8l-.141.15L7.802 59.46l26.235 26.235a3.5 3.5 0 01-4.8 5.09l-.15-.14L.694 62.251a3.493 3.493 0 01-1.01-2.79 3.493 3.493 0 01.869-2.64l.141-.15 28.393-28.393a3.5 3.5 0 014.95 0z" />
</svg>
